<?xml version="1.0" encoding="UTF-8"?>
<svg version="1.1" xmlns="http://www.w3.org/2000/svg" width="64" height="61">
<path d="M0 0 C0.90136185 -0.01283524 1.80272369 -0.02567047 2.73139954 -0.03889465 C4.18923103 -0.04997505 4.18923103 -0.04997505 5.67651367 -0.0612793 C7.18032845 -0.07338692 7.18032845 -0.07338692 8.71452332 -0.08573914 C10.83700841 -0.09957168 12.95951566 -0.11029754 15.08203125 -0.11816406 C18.32163803 -0.13537667 21.56022418 -0.1792708 24.79956055 -0.22338867 C26.86270409 -0.23351592 28.9258563 -0.24203192 30.98901367 -0.2487793 C31.95482864 -0.26628738 32.92064362 -0.28379547 33.91572571 -0.30183411 C39.58975547 -0.283609 43.18827224 0.14280786 47.53198242 4.17700195 C50.89801795 9.06618079 50.98610921 13.50406434 50.96557617 19.23168945 C50.97081802 20.09206818 50.97605988 20.9524469 50.98146057 21.83889771 C50.98786153 23.6525973 50.98656881 25.46633852 50.97802734 27.2800293 C50.96952924 30.03681394 50.99828507 32.791516 51.0300293 35.5480957 C51.03164199 37.31762634 51.03106248 39.0871606 51.02807617 40.85668945 C51.03931015 41.67152802 51.05054413 42.48636658 51.06211853 43.32589722 C50.9934469 49.04204583 49.85962097 53.46150708 46.53198242 58.17700195 C42.21015545 62.2167528 36.83089091 61.66138933 31.22729492 61.6809082 C30.22995331 61.6908934 29.23261169 61.7008786 28.20504761 61.71116638 C26.09873595 61.72632896 23.9923525 61.73339275 21.88598633 61.73291016 C18.67432121 61.73946656 15.46575644 61.79395474 12.25463867 61.85083008 C10.20386795 61.85963395 8.1530826 61.86558696 6.10229492 61.8684082 C4.67072556 61.90074303 4.67072556 61.90074303 3.2102356 61.93373108 C-2.60242041 61.87440241 -5.99761441 60.97540946 -10.1493988 56.78540039 C-14.05757324 52.01836553 -13.77526751 47.04284228 -13.76879883 41.1496582 C-13.77308395 40.28312119 -13.77736908 39.41658417 -13.78178406 38.52378845 C-13.78751301 36.69571809 -13.78803821 34.86762495 -13.78369141 33.03955078 C-13.78053207 30.25228759 -13.8040059 27.46608716 -13.8293457 24.67895508 C-13.83161901 22.89835745 -13.83232205 21.11775699 -13.83129883 19.3371582 C-13.84050858 18.50886002 -13.84971832 17.68056183 -13.85920715 16.8271637 C-13.81340788 11.06078758 -12.74646842 6.93013006 -8.96801758 2.36450195 C-6.16655476 0.14667722 -3.42563162 0.04255619 0 0 Z " fill="#6671F5" transform="translate(13.468017578125,-0.177001953125)"/>
<path d="M0 0 C3.96 0 7.92 0 12 0 C12 0.66 12 1.32 12 2 C9.69 1.67 7.38 1.34 5 1 C5 2.65 5 4.3 5 6 C6.98 5.67 8.96 5.34 11 5 C11 6.32 11 7.64 11 9 C8.03 8.505 8.03 8.505 5 8 C5 9.98 5 11.96 5 14 C7.64 13.34 10.28 12.68 13 12 C13 12.99 13 13.98 13 15 C8.71 15 4.42 15 0 15 C0.66 14.67 1.32 14.34 2 14 C2 9.71 2 5.42 2 1 C1.34 0.67 0.68 0.34 0 0 Z " fill="#D1D6FC" transform="translate(18,22)"/>
<path d="M0 0 C4.62 0 9.24 0 14 0 C14 0.99 14 1.98 14 3 C13.34 3 12.68 3 12 3 C12 2.34 12 1.68 12 1 C11.01 1 10.02 1 9 1 C9 5.62 9 10.24 9 15 C7.35 15 5.7 15 4 15 C4.33 10.38 4.66 5.76 5 1 C3.35 1.66 1.7 2.32 0 3 C0 2.01 0 1.02 0 0 Z " fill="#D1D3FC" transform="translate(32,22)"/>
<path d="M0 0 C4.86045979 0.45213579 7.53141261 1.53141261 11 5 C12.51848927 7.96466952 13 9.65761787 13 13 C12.34 13 11.68 13 11 13 C10.608125 11.9275 10.21625 10.855 9.8125 9.75 C7.75043854 4.91246245 4.28070623 2.85380415 0 0 Z " fill="#9EA4F0" transform="translate(51,0)"/>
<path d="M0 0 C-0.804375 0.3403125 -0.804375 0.3403125 -1.625 0.6875 C-6.1068348 3.16430344 -10.17574465 6.07451056 -12 11 C-12.66 10.67 -13.32 10.34 -14 10 C-10.85462555 3.25991189 -10.85462555 3.25991189 -8 1 C-5.07175348 0.02391783 -3.04386724 -0.08226668 0 0 Z " fill="#90B1F0" transform="translate(14,0)"/>
</svg>
