<?xml version="1.0" encoding="UTF-8"?>
<svg version="1.1" xmlns="http://www.w3.org/2000/svg" width="88" height="80">
<path d="M0 0 C1.06488647 -0.0038269 2.12977295 -0.00765381 3.22692871 -0.01159668 C5.47274728 -0.0143121 7.71859767 -0.00697694 9.96435547 0.00976562 C13.39492544 0.03117931 16.82340114 0.00995009 20.25390625 -0.015625 C22.44010877 -0.01298166 24.62631 -0.00785656 26.8125 0 C27.83452515 -0.00809692 28.85655029 -0.01619385 29.9095459 -0.02453613 C35.72138173 0.05170144 39.43661356 0.43721326 43.90625 4.53125 C48.6190547 9.73106248 48.45280564 14.411828 48.33203125 21.07421875 C48.32709908 22.58233879 48.32709908 22.58233879 48.32206726 24.1209259 C48.31167453 26.2381542 48.29177254 28.35535464 48.26293945 30.47241211 C48.21875892 33.71809494 48.20148333 36.96303764 48.18945312 40.20898438 C48.17603266 42.26823988 48.16111069 44.32748626 48.14453125 46.38671875 C48.13714432 47.35860641 48.12975739 48.33049408 48.12214661 49.33183289 C48.10931137 50.23319473 48.09647614 51.13455658 48.08325195 52.06323242 C48.07340775 52.85565842 48.06356354 53.64808441 48.05342102 54.46452332 C47.90625 56.53125 47.90625 56.53125 46.90625 59.53125 C46.24625 59.53125 45.58625 59.53125 44.90625 59.53125 C44.7 60.129375 44.49375 60.7275 44.28125 61.34375 C42.28080217 64.52628064 40.41963248 65.16293554 36.90625 66.53125 C33.376798 66.98222877 29.87525464 66.99926335 26.3203125 67 C24.79668594 67.01142029 24.79668594 67.01142029 23.24227905 67.02307129 C21.0990443 67.03384969 18.95575712 67.03673462 16.8125 67.03222656 C13.5485796 67.03125516 10.28701836 67.0728855 7.0234375 67.1171875 C4.9349007 67.12239577 2.84635579 67.12508267 0.7578125 67.125 C-0.21014252 67.14139526 -1.17809753 67.15779053 -2.17538452 67.17468262 C-8.51078297 67.1106726 -13.33136543 65.94455092 -18.09375 61.53125 C-18.09375 60.87125 -18.09375 60.21125 -18.09375 59.53125 C-18.75375 59.53125 -19.41375 59.53125 -20.09375 59.53125 C-21.02713722 56.73108834 -21.23471785 54.96385816 -21.27075195 52.06323242 C-21.28358719 51.16187057 -21.29642242 50.26050873 -21.30964661 49.33183289 C-21.31703354 48.35994522 -21.32442047 47.38805756 -21.33203125 46.38671875 C-21.340103 45.38417557 -21.34817474 44.38163239 -21.35649109 43.34870911 C-21.37032363 41.22622402 -21.3810495 39.10371676 -21.38891602 36.98120117 C-21.40612862 33.74159439 -21.45002275 30.50300825 -21.49414062 27.26367188 C-21.50426787 25.20052833 -21.51278387 23.13737612 -21.51953125 21.07421875 C-21.53703934 20.10840378 -21.55454742 19.14258881 -21.57258606 18.14750671 C-21.55426345 12.44312014 -21.08532117 8.93529874 -17.09375 4.53125 C-11.82149125 -0.29796179 -6.78758524 -0.05377418 0 0 Z " fill="#6470F5" transform="translate(30.09375,6.46875)"/>
<path d="M0 0 C1.98 0 3.96 0 6 0 C7.32 2.97 8.64 5.94 10 9 C11.71457309 6.79554889 12.99803811 5.00514996 14 2.375 C16 0 16 0 18.0222168 -0.40356445 C20.59366693 -0.49332335 23.11745698 -0.43470395 25.6875 -0.3125 C26.58017578 -0.28994141 27.47285156 -0.26738281 28.39257812 -0.24414062 C30.59674272 -0.18520574 32.79752672 -0.10300818 35 0 C35 0.99 35 1.98 35 3 C32.36 2.34 29.72 1.68 27 1 C27 2.98 27 4.96 27 7 C28.98 6.34 30.96 5.68 33 5 C33 6.65 33 8.3 33 10 C31.02 9.34 29.04 8.68 27 8 C27 10.31 27 12.62 27 15 C30.465 14.505 30.465 14.505 34 14 C34 13.34 34 12.68 34 12 C34.66 12 35.32 12 36 12 C35.67 13.32 35.34 14.64 35 16 C28.07 16 21.14 16 14 16 C14.66 15.67 15.32 15.34 16 15 C15.67 12.36 15.34 9.72 15 7 C13.68 9.97 12.36 12.94 11 16 C8 15 8 15 7.05078125 13.15234375 C6.80714844 12.42144531 6.56351563 11.69054687 6.3125 10.9375 C5.93544922 9.83728516 5.93544922 9.83728516 5.55078125 8.71484375 C5.36902344 8.14894531 5.18726563 7.58304688 5 7 C4.73067479 11.65052872 4.73067479 11.65052872 6 16 C4.02 16 2.04 16 0 16 C0.66 15.67 1.32 15.34 2 15 C2 10.38 2 5.76 2 1 C1.34 0.67 0.68 0.34 0 0 Z " fill="#EBEDFD" transform="translate(18,31)"/>
<path d="M0 0 C1.98 0 3.96 0 6 0 C7.32 2.97 8.64 5.94 10 9 C10.45375 8.38125 10.9075 7.7625 11.375 7.125 C13 5 13 5 15 3 C15 6.87950965 14.59216239 8.36665493 13 11.75 C12.62875 12.54921875 12.2575 13.3484375 11.875 14.171875 C11.441875 15.07679687 11.441875 15.07679687 11 16 C8 15 8 15 7.05078125 13.15234375 C6.80714844 12.42144531 6.56351563 11.69054687 6.3125 10.9375 C5.93544922 9.83728516 5.93544922 9.83728516 5.55078125 8.71484375 C5.36902344 8.14894531 5.18726563 7.58304688 5 7 C4.73067479 11.65052872 4.73067479 11.65052872 6 16 C4.02 16 2.04 16 0 16 C0.66 15.67 1.32 15.34 2 15 C2 10.38 2 5.76 2 1 C1.34 0.67 0.68 0.34 0 0 Z " fill="#F0F2FE" transform="translate(18,31)"/>
<path d="M0 0 C4.62 0 9.24 0 14 0 C13.67 1.32 13.34 2.64 13 4 C12.67 3.34 12.34 2.68 12 2 C11.01 1.67 10.02 1.34 9 1 C9 5.62 9 10.24 9 15 C9.66 15.33 10.32 15.66 11 16 C8.69 16 6.38 16 4 16 C4.66 15.67 5.32 15.34 6 15 C6 10.38 6 5.76 6 1 C2.88214887 1.64644661 2.88214887 1.64644661 2 4 C1.34 4 0.68 4 0 4 C0 2.68 0 1.36 0 0 Z " fill="#ECECFD" transform="translate(54,31)"/>
<path d="M0 0 C1.65 0 3.3 0 5 0 C5 4.62 5 9.24 5 14 C3.35 14 1.7 14 0 14 C0 9.38 0 4.76 0 0 Z " fill="#6C7BF6" transform="translate(37,32)"/>
<path d="M0 0 C0.66 0 1.32 0 2 0 C2.03738281 0.98742187 2.07476562 1.97484375 2.11328125 2.9921875 C2.17902344 4.27351563 2.24476562 5.55484375 2.3125 6.875 C2.37050781 8.15117188 2.42851563 9.42734375 2.48828125 10.7421875 C2.65714844 11.81726563 2.82601562 12.89234375 3 14 C3.99 14.66 4.98 15.32 6 16 C3.36 16 0.72 16 -2 16 C-1.34 15.67 -0.68 15.34 0 15 C-0.08378906 14.00097656 -0.16757812 13.00195312 -0.25390625 11.97265625 C-0.35574219 10.68230469 -0.45757812 9.39195313 -0.5625 8.0625 C-0.66691406 6.77472656 -0.77132812 5.48695312 -0.87890625 4.16015625 C-0.91886719 3.11730469 -0.95882812 2.07445312 -1 1 C-0.67 0.67 -0.34 0.34 0 0 Z " fill="#F2F4FE" transform="translate(34,31)"/>
<path d="M0 0 C1.98 0 3.96 0 6 0 C6.33 1.32 6.66 2.64 7 4 C5.68 3.67 4.36 3.34 3 3 C3 6.63 3 10.26 3 14 C2.67 14 2.34 14 2 14 C2 9.71 2 5.42 2 1 C1.34 0.67 0.68 0.34 0 0 Z " fill="#D0DAFC" transform="translate(18,31)"/>
<path d="M0 0 C0.66 0 1.32 0 2 0 C1.98839844 0.77085938 1.97679687 1.54171875 1.96484375 2.3359375 C1.95582031 3.33882812 1.94679688 4.34171875 1.9375 5.375 C1.92589844 6.37273438 1.91429687 7.37046875 1.90234375 8.3984375 C1.81993398 10.98432453 1.81993398 10.98432453 3 13 C1.02 13 -0.96 13 -3 13 C-2.34 12.34 -1.68 11.68 -1 11 C-0.53709779 8.33757179 -0.53709779 8.33757179 -0.375 5.375 C-0.30023437 4.37210938 -0.22546875 3.36921875 -0.1484375 2.3359375 C-0.09945313 1.56507812 -0.05046875 0.79421875 0 0 Z " fill="#E6EBFD" transform="translate(21,34)"/>
<path d="M0 0 C0.66 0.33 1.32 0.66 2 1 C0.125 6.75 0.125 6.75 -1 9 C-1.99 8.67 -2.98 8.34 -4 8 C-2.68 5.36 -1.36 2.72 0 0 Z " fill="#CAD2FC" transform="translate(32,34)"/>
<path d="M0 0 C2.97 0 5.94 0 9 0 C9 0.99 9 1.98 9 3 C6.36 2.34 3.72 1.68 1 1 C1 2.98 1 4.96 1 7 C0.67 7 0.34 7 0 7 C0 4.69 0 2.38 0 0 Z " fill="#D9DCFC" transform="translate(44,31)"/>
<path d="M0 0 C0.33 0.99 0.66 1.98 1 3 C1.66 3 2.32 3 3 3 C2.67 4.32 2.34 5.64 2 7 C1.01 6.67 0.02 6.34 -1 6 C-0.67 4.02 -0.34 2.04 0 0 Z " fill="#E0E4FD" transform="translate(27,40)"/>
</svg>
